<?xml version="1.0" encoding="UTF-8"?>
<svg version="1.1" xmlns="http://www.w3.org/2000/svg" width="933" height="158">
<path d="M0 0 C3.0625 0.1875 3.0625 0.1875 5.0625 2.1875 C5.53265036 6.84927257 4.56120591 9.97501802 2.625 14.1875 C-0.4632557 20.94470906 -1.09792567 27.02239147 -1.140625 34.40234375 C-1.14632507 35.17630997 -1.15202515 35.95027618 -1.15789795 36.74769592 C-1.16730116 38.3772751 -1.1738632 40.0068729 -1.17773438 41.63647461 C-1.18745726 44.11410888 -1.21853107 46.59091866 -1.25 49.06835938 C-1.25652985 50.65884929 -1.26178039 52.24934508 -1.265625 53.83984375 C-1.2779718 54.57234848 -1.2903186 55.30485321 -1.30303955 56.05955505 C-1.28127345 61.1426335 -0.27694418 64.65772382 2.0625 69.1875 C4.93747747 71.78836654 8.30808086 73.11654923 12.1875 73.2734375 C14.56176691 73.07346599 14.56176691 73.07346599 18.0625 72.1875 C18.990625 72.0225 19.91875 71.8575 20.875 71.6875 C24.56644671 69.15622226 25.2306119 65.38276657 26.0625 61.1875 C26.66100641 54.16616668 26.5030412 47.07042963 26.49829102 40.02929688 C26.50187596 37.56858977 26.52925075 35.1089526 26.55859375 32.6484375 C26.55041122 31.90347015 26.5422287 31.15850281 26.53379822 30.39096069 C26.61115492 24.90892067 27.93609547 21.71124556 31.0625 17.1875 C36.84130412 12.61261341 41.73800236 11.43310418 49.0625 12.1875 C54.86830452 14.05716586 58.6981913 16.7646846 62.17822266 21.80273438 C63.52493485 25.43461862 63.38801246 29.08096963 63.3984375 32.90625 C63.4084227 34.18683289 63.4084227 34.18683289 63.41860962 35.49328613 C63.42872843 37.30214286 63.43342688 39.11103687 63.43310547 40.91992188 C63.43744108 43.65039206 63.47366229 46.37919473 63.51171875 49.109375 C63.6276117 66.95607182 59.07962758 80.57440429 46.66796875 93.796875 C36.48136641 103.14350263 22.3872276 109.25515698 8.4375 109.375 C7.68210938 109.38917969 6.92671875 109.40335937 6.1484375 109.41796875 C4.0625 109.1875 4.0625 109.1875 1.0625 107.1875 C0.75 104.1875 0.75 104.1875 1.0625 101.1875 C3.49417901 98.75582099 5.25977152 98.74664773 8.57299805 98.30126953 C21.4018802 96.57546112 33.54872841 92.0546183 42.07421875 81.7578125 C48.34931766 72.60114137 51.21338547 65.36048101 51.23046875 54.1484375 C51.23379715 53.38576569 51.23712555 52.62309387 51.24055481 51.83731079 C51.24559921 50.23204143 51.24796391 48.62676166 51.24780273 47.02148438 C51.24999899 44.56362845 51.26820717 42.10621472 51.28710938 39.6484375 C51.29004185 38.08593903 51.29202762 36.52343844 51.29296875 34.9609375 C51.30015427 34.22652435 51.30733978 33.49211121 51.31474304 32.73544312 C51.29794577 28.9990803 51.19014956 27.37897434 49.0625 24.1875 C46.74225596 23.17296047 46.74225596 23.17296047 44.0625 23.1875 C41.27741684 24.32499195 41.27741684 24.32499195 39.0625 26.1875 C37.81664636 29.92506092 37.88840394 33.43329864 37.8515625 37.328125 C37.82348376 38.97266603 37.79481923 40.61719714 37.765625 42.26171875 C37.7244643 44.846513 37.6875652 47.43112414 37.66113281 50.01611328 C37.63336851 52.51633695 37.58749023 55.01572719 37.5390625 57.515625 C37.53580963 58.27941467 37.53255676 59.04320435 37.52920532 59.83013916 C37.36352614 67.1363391 35.17734307 72.78038018 30.0625 78.1875 C22.78740346 83.72289954 16.05013132 85.13999354 7.0625 84.1875 C-0.57365909 82.43384719 -5.64662153 78.73352766 -9.9375 72.1875 C-12.56726294 67.28186473 -12.26088258 62.29872579 -12.2734375 56.875 C-12.2800943 55.86969238 -12.2867511 54.86438477 -12.29360962 53.82861328 C-12.30372426 51.70037662 -12.30842701 49.57210833 -12.30810547 47.44384766 C-12.31244759 44.2263371 -12.34869428 41.01023398 -12.38671875 37.79296875 C-12.52876531 11.85251901 -12.52876531 11.85251901 -3.9375 1.1875 C-2.9375 0.1875 -2.9375 0.1875 0 0 Z " fill="#CC3399" transform="translate(223.9375,39.8125)"/>
<path d="M0 0 C25.08 0 50.16 0 76 0 C75.67 10.23 75.34 20.46 75 31 C73.68 31 72.36 31 71 31 C70.68546875 29.91460937 70.3709375 28.82921875 70.046875 27.7109375 C69.61511115 26.26546723 69.18278975 24.82016343 68.75 23.375 C68.54503906 22.66214844 68.34007812 21.94929688 68.12890625 21.21484375 C66.26429233 15.05596748 63.74837953 9.41310034 58 6 C53.50162697 4.62572859 49.03774961 4.81597966 44.375 4.8125 C43.50359375 4.80025391 42.6321875 4.78800781 41.734375 4.77539062 C40.90164063 4.77345703 40.06890625 4.77152344 39.2109375 4.76953125 C38.07084229 4.76336792 38.07084229 4.76336792 36.90771484 4.75708008 C34.75901311 4.83290402 34.75901311 4.83290402 33 7 C32.75393985 10.00886724 32.62619218 12.93217752 32.5859375 15.9453125 C32.56657135 16.8303244 32.5472052 17.7153363 32.5272522 18.62716675 C32.46737277 21.45967916 32.42103787 24.29223203 32.375 27.125 C32.33682789 29.04298668 32.29777662 30.96095607 32.2578125 32.87890625 C32.16166445 37.58579748 32.07766458 42.29276896 32 47 C33.75128818 46.71617054 35.50100003 46.42260471 37.25 46.125 C38.22453125 45.96257813 39.1990625 45.80015625 40.203125 45.6328125 C43.58950909 44.86661945 46.18222878 44.18657001 48.1953125 41.265625 C48.50210938 40.60046875 48.80890625 39.9353125 49.125 39.25 C49.45242188 38.54359375 49.77984375 37.8371875 50.1171875 37.109375 C51.23068709 34.44880076 52.17137821 31.76207264 53 29 C54.32 29 55.64 29 57 29 C57.33 41.87 57.66 54.74 58 68 C56.35 68 54.7 68 53 68 C52.82984375 67.25234375 52.6596875 66.5046875 52.484375 65.734375 C52.24203125 64.74953125 51.9996875 63.7646875 51.75 62.75 C51.40195312 61.28820312 51.40195312 61.28820312 51.046875 59.796875 C49.58497695 55.89120706 47.44832309 53.78623254 43.8125 51.8125 C41.24815378 51.07168887 38.96868789 50.72393777 36.32421875 50.44921875 C35.51428467 50.36373779 34.70435059 50.27825684 33.86987305 50.19018555 C32.94428589 50.0960437 32.94428589 50.0960437 32 50 C32.09352117 55.21475559 32.19961178 60.42904614 32.31738281 65.64331055 C32.35567679 67.41732771 32.39052895 69.19142264 32.421875 70.96557617 C32.46751672 73.51509399 32.52551185 76.0640763 32.5859375 78.61328125 C32.59748871 79.40712723 32.60903992 80.20097321 32.62094116 81.01887512 C32.72355385 84.84323908 32.83064066 86.74596099 35 90 C37.87759068 90.80336113 37.87759068 90.80336113 41.125 91.1875 C42.76855469 91.42533203 42.76855469 91.42533203 44.4453125 91.66796875 C45.28835938 91.77753906 46.13140625 91.88710937 47 92 C47 93.32 47 94.64 47 96 C31.49 96 15.98 96 0 96 C0 94.68 0 93.36 0 92 C0.63808594 91.87882812 1.27617187 91.75765625 1.93359375 91.6328125 C2.75988281 91.46523437 3.58617187 91.29765625 4.4375 91.125 C5.26121094 90.96257812 6.08492188 90.80015625 6.93359375 90.6328125 C7.95646484 90.31957031 7.95646484 90.31957031 9 90 C10.51841205 86.9631759 10.14731457 83.80828818 10.14526367 80.47680664 C10.14862228 79.70104782 10.1519809 78.925289 10.15544128 78.12602234 C10.16496323 75.55405082 10.16689499 72.98214431 10.16796875 70.41015625 C10.17118036 68.62658155 10.17454436 66.84300712 10.17805481 65.05943298 C10.18404912 61.31769195 10.18589439 57.57597402 10.18530273 53.83422852 C10.18520107 49.03438609 10.19885625 44.23469145 10.21607494 39.43488407 C10.22718101 35.75035417 10.22922238 32.06586016 10.22869301 28.38131523 C10.22987512 26.61144946 10.23430977 24.84158282 10.24202538 23.07173347 C10.25179763 20.59857894 10.24895831 18.12574737 10.24291992 15.65258789 C10.24853943 14.91845673 10.25415894 14.18432556 10.25994873 13.427948 C10.23692767 9.72675252 10.11040243 8.16560364 8 5 C6.04614933 4.21011855 6.04614933 4.21011855 3.875 3.8125 C2.59625 3.544375 1.3175 3.27625 0 3 C0 2.01 0 1.02 0 0 Z " fill="#3D3399" transform="translate(470,17)"/>
<path d="M0 0 C24.75 0 49.5 0 75 0 C75 10.23 75 20.46 75 31 C73.35 30.67 71.7 30.34 70 30 C69.75765625 28.98679687 69.5153125 27.97359375 69.265625 26.9296875 C68.92769604 25.57797167 68.58911976 24.22641757 68.25 22.875 C68.09273437 22.20984375 67.93546875 21.5446875 67.7734375 20.859375 C66.59951527 16.2539878 65.14563865 12.67685577 62 9 C52.36021682 3.43475242 52.36021682 3.43475242 33 5 C32.67 18.86 32.34 32.72 32 47 C42.33348179 45.78027579 42.33348179 45.78027579 49 40 C50.61368771 36.40840667 51.87711046 32.77158781 53 29 C54.32 29 55.64 29 57 29 C57.33 41.87 57.66 54.74 58 68 C56.35 68 54.7 68 53 68 C52.82984375 67.33613281 52.6596875 66.67226562 52.484375 65.98828125 C50.17223404 57.50835238 50.17223404 57.50835238 43.8125 51.75 C41.26552898 51.07080773 38.9379152 50.72700828 36.32421875 50.453125 C35.51428467 50.36708008 34.70435059 50.28103516 33.86987305 50.19238281 C33.25281494 50.12889648 32.63575684 50.06541016 32 50 C32.01938817 55.35759734 32.07100413 60.71354468 32.15258789 66.07055664 C32.17579308 67.89305634 32.19016953 69.71569062 32.19555664 71.53833008 C32.20482826 74.15791939 32.24577536 76.77538477 32.29296875 79.39453125 C32.2890361 80.21025101 32.28510345 81.02597076 32.28105164 81.8664093 C32.29207736 84.43978922 32.29207736 84.43978922 33 88 C35.96779381 90.4759742 38.49557306 91.36403162 42.3125 91.6875 C43.529375 91.790625 44.74625 91.89375 46 92 C46 93.32 46 94.64 46 96 C30.82 96 15.64 96 0 96 C0 94.68 0 93.36 0 92 C0.95712891 91.83564453 0.95712891 91.83564453 1.93359375 91.66796875 C2.75988281 91.50941406 3.58617187 91.35085937 4.4375 91.1875 C5.26121094 91.03667969 6.08492187 90.88585937 6.93359375 90.73046875 C7.95646484 90.36888672 7.95646484 90.36888672 9 90 C10.1908034 86.42758981 10.15538524 83.17352355 10.16113281 79.45507812 C10.16609772 78.68892685 10.17106262 77.92277557 10.17617798 77.13340759 C10.19078206 74.59934594 10.19759747 72.06534682 10.203125 69.53125 C10.2088764 67.77152504 10.21463414 66.01180011 10.22039795 64.2520752 C10.2309019 60.56339221 10.23674903 56.87473099 10.24023438 53.18603516 C10.24572819 48.4545381 10.26977754 43.7233275 10.29820633 38.99192047 C10.31680553 35.35800324 10.32203678 31.72415552 10.32357025 28.0901947 C10.32660176 26.34543791 10.334647 24.60068248 10.34775543 22.85597229 C10.36476494 20.41873145 10.36294886 17.98219758 10.35644531 15.54492188 C10.37026749 14.4601078 10.37026749 14.4601078 10.3843689 13.3533783 C10.36048409 10.50346298 10.33938326 8.49846766 8.70819092 6.10266113 C6.01377066 4.36337517 3.08826337 3.75749856 0 3 C0 2.01 0 1.02 0 0 Z " fill="#3D3399" transform="translate(559,17)"/>
<path d="M0 0 C13.53 0 27.06 0 41 0 C41 1.32 41 2.64 41 4 C37.7 4.33 34.4 4.66 31 5 C31.53384976 9.31128891 32.51239172 12.4130814 34.6953125 16.16015625 C35.24356689 17.11317627 35.79182129 18.06619629 36.35668945 19.0480957 C36.94023193 20.04284912 37.52377441 21.03760254 38.125 22.0625 C39.3094305 24.11931005 40.49302948 26.17659915 41.67578125 28.234375 C42.53357178 29.7184082 42.53357178 29.7184082 43.40869141 31.23242188 C45.42294075 34.73557171 47.38221495 38.2623675 49.3125 41.8125 C49.84488281 42.78832031 50.37726562 43.76414063 50.92578125 44.76953125 C52 47 52 47 52 49 C54.82776334 46.50783239 56.33658418 43.77845802 58.06640625 40.44921875 C58.9181543 38.81243164 58.9181543 38.81243164 59.78710938 37.14257812 C60.37298828 36.00240234 60.95886719 34.86222656 61.5625 33.6875 C62.15224609 32.55892578 62.74199219 31.43035156 63.34960938 30.26757812 C69.0278486 19.71398252 69.0278486 19.71398252 70 8 C67.13070364 4.67161622 63.15143359 4.0378584 59 3 C59 2.01 59 1.02 59 0 C68.57 0 78.14 0 88 0 C88 1.32 88 2.64 88 4 C86.02469661 5.36965481 84.02122469 6.69906629 82 8 C73.7606336 18.3291849 68.37372423 31.62950618 62.40698242 43.34375 C61 46 61 46 59.34643555 48.31396484 C57.49893903 51.99957803 57.56993823 55.44528156 57.6015625 59.4765625 C57.59725723 60.68715836 57.59725723 60.68715836 57.59286499 61.92221069 C57.59083003 63.62165024 57.59632009 65.32111351 57.60888672 67.02050781 C57.6249912 69.62357682 57.60899806 72.22510314 57.58984375 74.828125 C57.59182546 76.48177426 57.59566765 78.13542256 57.6015625 79.7890625 C57.59548981 80.56722321 57.58941711 81.34538391 57.5831604 82.14712524 C57.61328464 86.2930226 57.61328464 86.2930226 59.32568359 89.97021484 C61.76927163 91.47313907 64.18224456 91.68691606 67 92 C67 93.32 67 94.64 67 96 C53.14 96 39.28 96 25 96 C25 94.68 25 93.36 25 92 C25.63808594 91.89042969 26.27617188 91.78085938 26.93359375 91.66796875 C27.75988281 91.50941406 28.58617187 91.35085937 29.4375 91.1875 C30.26121094 91.03667969 31.08492187 90.88585937 31.93359375 90.73046875 C32.95646484 90.36888672 32.95646484 90.36888672 34 90 C37.87109877 78.38670368 37.27059058 62.99122255 32.1484375 51.984375 C29.0917556 46.25082581 25.6608248 40.76874373 22.12207031 35.32226562 C18.61845835 29.83708942 15.46721894 24.15689334 12.25 18.5 C11.11645086 16.52716744 9.97639638 14.55805008 8.828125 12.59375 C8.1151123 11.36688477 8.1151123 11.36688477 7.38769531 10.11523438 C5.21163676 6.79831473 3.80559569 5.2685319 0 4 C0 2.68 0 1.36 0 0 Z " fill="#3D3399" transform="translate(642,17)"/>
<path d="M0 0 C14.19 0 28.38 0 43 0 C43 0.99 43 1.98 43 3 C42.04287109 3.29003906 42.04287109 3.29003906 41.06640625 3.5859375 C40.24011719 3.84632812 39.41382813 4.10671875 38.5625 4.375 C37.73878906 4.63023438 36.91507812 4.88546875 36.06640625 5.1484375 C33.82201984 5.80882227 33.82201984 5.80882227 33 8 C32.88897459 10.3199244 32.84340362 12.64305873 32.82641602 14.96557617 C32.819729 15.6830452 32.81304199 16.40051422 32.80615234 17.13972473 C32.79208196 18.70242286 32.78019426 20.26514178 32.77020454 21.82787132 C32.75376197 24.31479083 32.73051319 26.80156117 32.70530701 29.28840637 C32.63468986 36.36138392 32.57496591 43.43442854 32.52319336 50.50756836 C32.49103966 54.83477263 32.44965886 59.16181497 32.40299797 63.48888588 C32.38716841 65.12599013 32.37476123 66.76313172 32.36609077 68.40028954 C32.19294391 100.67818361 32.19294391 100.67818361 23.05859375 111.24609375 C15.90661986 118.21894844 8.26252441 121.20317636 -1.6875 121.25 C-3.45917209 121.18696719 -5.23069548 121.11116049 -7 121 C-7 120.01 -7 119.02 -7 118 C-6.32453125 117.75765625 -5.6490625 117.5153125 -4.953125 117.265625 C1.93803795 114.9043531 1.93803795 114.9043531 7 110 C9.51452349 103.42571398 10.43672163 97.35748209 10.37231445 90.359375 C10.37596512 89.45404526 10.37961578 88.54871552 10.38337708 87.61595154 C10.39140296 84.66043625 10.37794788 81.70548274 10.36328125 78.75 C10.36276205 76.68400065 10.36328207 74.61800081 10.36479187 72.55200195 C10.36470253 68.24178609 10.35434417 63.93175877 10.33618164 59.62158203 C10.31338151 54.0887166 10.31297497 48.55612348 10.31969929 43.02322388 C10.32303271 38.76655643 10.31642294 34.50995151 10.30657005 30.2532959 C10.30271547 28.21187669 10.3015709 26.17045055 10.3031559 24.12902832 C10.30352512 21.2877054 10.29095053 18.44673838 10.2746582 15.60546875 C10.27713562 14.75875107 10.27961304 13.91203339 10.28216553 13.03965759 C10.43324923 8.54624568 10.43324923 8.54624568 8 5 C6.03309626 4.32707499 6.03309626 4.32707499 3.875 3.875 C2.59625 3.58625 1.3175 3.2975 0 3 C0 2.01 0 1.02 0 0 Z " fill="#3D3399" transform="translate(356,17)"/>
<path d="M0 0 C13.86 0 27.72 0 42 0 C42 0.99 42 1.98 42 3 C39.03 3.66 36.06 4.32 33 5 C31.99612771 9.16987824 31.86723468 13.09025469 31.85473633 17.37304688 C31.85137772 18.09726334 31.8480191 18.8214798 31.84455872 19.56764221 C31.83509294 21.95136245 31.83310803 24.33501216 31.83203125 26.71875 C31.8288164 28.3811445 31.82545215 30.04353871 31.82194519 31.70593262 C31.81596543 35.18596045 31.81410418 38.66596349 31.81469727 42.14599609 C31.814799 46.60141189 31.80113011 51.05666872 31.78392506 55.51204681 C31.7728001 58.94359058 31.77077819 62.37509593 31.77130699 65.80665588 C31.77012827 67.44927012 31.76571253 69.09188538 31.75797462 70.73448181 C31.74816161 73.03208542 31.75105749 75.32934379 31.75708008 77.62695312 C31.75565506 78.93313599 31.75423004 80.23931885 31.75276184 81.58508301 C31.99067976 84.87126648 32.46942499 87.09898103 34 90 C35.92492357 91.02160437 35.92492357 91.02160437 38.125 91.3125 C39.40375 91.539375 40.6825 91.76625 42 92 C42 93.32 42 94.64 42 96 C28.14 96 14.28 96 0 96 C0 94.68 0 93.36 0 92 C2.01822917 91.609375 4.03645833 91.21875 6.0546875 90.828125 C8.09626722 90.16279788 8.09626722 90.16279788 9.10639954 88.40769958 C10.3145436 85.15249988 10.27086739 82.07239722 10.24291992 78.64868164 C10.24481827 77.91485764 10.24671661 77.18103363 10.24867249 76.42497253 C10.25237198 74.00325782 10.24168643 71.58184424 10.23046875 69.16015625 C10.22927617 67.47391292 10.22882395 65.78766891 10.2290802 64.10142517 C10.22751666 60.56830685 10.21923793 57.03529005 10.20581055 53.50219727 C10.18883402 48.97840926 10.18499597 44.45473291 10.18575573 39.93091679 C10.18548346 36.44875528 10.17999292 32.96661806 10.17275429 29.48446465 C10.16957691 27.81673809 10.16760239 26.14900879 10.16686058 24.48127937 C10.1646864 22.1477098 10.15591854 19.81425721 10.14526367 17.48071289 C10.14571686 16.79431732 10.14617004 16.10792175 10.14663696 15.40072632 C10.12273277 11.81049703 9.84362583 8.49268384 9 5 C4.545 4.01 4.545 4.01 0 3 C0 2.01 0 1.02 0 0 Z " fill="#3D3399" transform="translate(413,17)"/>
<path d="M0 0 C0.54914063 0.46535156 1.09828125 0.93070313 1.6640625 1.41015625 C1.6640625 2.07015625 1.6640625 2.73015625 1.6640625 3.41015625 C2.251875 3.64476563 2.8396875 3.879375 3.4453125 4.12109375 C11.20555763 8.62968687 16.34041916 21.00929187 18.6640625 29.41015625 C19.46351477 34.17772689 19.79236187 38.7546297 19.796875 43.5859375 C19.79783173 44.23717087 19.79878845 44.88840424 19.79977417 45.55937195 C19.80044911 46.92149961 19.79864317 48.28363063 19.79443359 49.64575195 C19.78903159 51.73461007 19.79442398 53.82325745 19.80078125 55.91210938 C19.79949219 57.22759766 19.79820312 58.54308594 19.796875 59.8984375 C19.79574707 61.10024658 19.79461914 62.30205566 19.79345703 63.5402832 C19.6640625 66.41015625 19.6640625 66.41015625 18.6640625 68.41015625 C15.8515625 69.28515625 15.8515625 69.28515625 12.6640625 69.41015625 C9.69060269 67.24343872 8.76430891 66.02361909 8.16577148 62.36083984 C8.16391846 61.18859863 8.16206543 60.01635742 8.16015625 58.80859375 C8.14146484 57.51308594 8.12277344 56.21757813 8.10351562 54.8828125 C8.10106663 53.51692912 8.1004267 52.15104135 8.1015625 50.78515625 C8.07227888 34.60888551 5.55494843 23.05550691 -5.3984375 10.66015625 C-14.57493473 2.04421428 -27.68649452 -2.10661867 -40.02734375 -1.91796875 C-47.02363169 -1.22412201 -54.44897324 0.48551341 -60.3359375 4.41015625 C-63.3359375 4.78515625 -63.3359375 4.78515625 -66.3359375 4.41015625 C-68.3359375 2.78515625 -68.3359375 2.78515625 -69.3359375 0.41015625 C-68.74609375 -2.56640625 -68.74609375 -2.56640625 -67.3359375 -5.58984375 C-63.6323966 -7.97027878 -59.50454163 -9.21071754 -55.3359375 -10.58984375 C-54.62308594 -10.83863281 -53.91023437 -11.08742188 -53.17578125 -11.34375 C-34.2751477 -16.71709115 -15.65796917 -10.65684523 0 0 Z " fill="#CC3399" transform="translate(306.3359375,27.58984375)"/>
<path d="M0 0 C8.51190476 6.57738095 8.51190476 6.57738095 9.25 11.375 C8.75 14.125 8.75 14.125 6.75 16.125 C4.125 16.6875 4.125 16.6875 0.75 16.125 C-1.44820338 14.51613882 -3.38190878 12.74705744 -5.36328125 10.87890625 C-11.45292778 5.21793049 -17.27685408 4.82848096 -25.27734375 4.90625 C-31.56134798 5.36867344 -36.22596696 8.41678514 -41.25 12.125 C-41.58 12.785 -41.91 13.445 -42.25 14.125 C-42.91 14.125 -43.57 14.125 -44.25 14.125 C-44.683125 15.4553125 -44.683125 15.4553125 -45.125 16.8125 C-46.25 20.125 -46.25 20.125 -47.30322266 22.32958984 C-48.53080034 25.95407785 -48.52859904 29.38294992 -48.5234375 33.1640625 C-48.54371155 34.72917401 -48.56456203 36.29427814 -48.5859375 37.859375 C-48.60860048 40.31288941 -48.62503823 42.76611199 -48.63085938 45.21972656 C-48.6403592 47.59753276 -48.67408238 49.97404528 -48.7109375 52.3515625 C-48.70589203 53.08597565 -48.70084656 53.82038879 -48.69564819 54.57705688 C-48.75962729 57.87827148 -48.81570109 59.66098411 -51.11962891 62.12255859 C-53.92764213 63.443863 -55.35043872 63.11695518 -58.25 62.125 C-61.11823837 59.25676163 -60.5930867 56.35736263 -60.62109375 52.51171875 C-60.63463646 51.3636248 -60.63463646 51.3636248 -60.64845276 50.19233704 C-60.66298684 48.56405554 -60.67184981 46.93571523 -60.67553711 45.30737305 C-60.68727489 42.85944715 -60.7362824 40.41417794 -60.78710938 37.96679688 C-60.91803949 25.48611847 -59.22009406 15.58076549 -51 5.625 C-36.73033537 -8.87974972 -17.18479006 -9.91430196 0 0 Z " fill="#CC3399" transform="translate(291.25,39.875)"/>
<path d="M0 0 C2.9375 0.875 2.9375 0.875 4.9375 3.875 C5.19819641 5.78746033 5.19819641 5.78746033 5.2121582 7.97241211 C5.22645622 9.20531227 5.22645622 9.20531227 5.24104309 10.46311951 C5.24013168 11.35056351 5.23922028 12.23800751 5.23828125 13.15234375 C5.24256638 14.07406876 5.2468515 14.99579376 5.25126648 15.94544983 C5.25701423 17.90153178 5.25750678 19.85763511 5.25317383 21.8137207 C5.2500449 24.77007989 5.27335828 27.72540749 5.29882812 30.68164062 C5.35215994 46.13175316 4.36842184 60.1905648 -6.8125 72 C-9.0625 73.875 -9.0625 73.875 -11.0625 73.875 C-11.0625 74.535 -11.0625 75.195 -11.0625 75.875 C-17.14921484 79.8922318 -17.14921484 79.8922318 -21.375 79.8125 C-24.0625 78.875 -24.0625 78.875 -26.0625 75.875 C-26.1875 73.5625 -26.1875 73.5625 -25.0625 70.875 C-21.72717284 67.78535542 -18.38758128 65.31669376 -14.0625 63.875 C-13.03799761 61.69362203 -13.03799761 61.69362203 -12.0625 58.875 C-11.05865508 56.81511022 -10.01487731 54.77885636 -8.96484375 52.7421875 C-7.41825325 49.54188334 -6.93383185 46.95568866 -6.90478516 43.45117188 C-6.89452301 42.56014771 -6.88426086 41.66912354 -6.87368774 40.75109863 C-6.86638641 39.79167358 -6.85908508 38.83224854 -6.8515625 37.84375 C-6.82350477 35.81639803 -6.79484039 33.78905437 -6.765625 31.76171875 C-6.72428132 28.56201311 -6.68739711 25.3624647 -6.66113281 22.16259766 C-6.63360243 19.07682183 -6.58774357 15.99175475 -6.5390625 12.90625 C-6.53580963 11.94682495 -6.53255676 10.9873999 -6.52920532 9.99890137 C-6.51263885 9.1078772 -6.49607239 8.21685303 -6.47900391 7.29882812 C-6.47091705 6.51511841 -6.4628302 5.73140869 -6.45449829 4.9239502 C-5.68999757 0.92795345 -3.94432553 -0.16099288 0 0 Z " fill="#CC3399" transform="translate(302.0625,64.125)"/>
<path d="M0 0 C0.99 -0.33 1.98 -0.66 3 -1 C3.99 -0.34 4.98 0.32 6 1 C6.40843923 3.71203652 6.13336867 6.2437142 6 9 C5.01 9 4.02 9 3 9 C3 6.69 3 4.38 3 2 C2.01 2.495 2.01 2.495 1 3 C0.34227572 6.02934491 0.34227572 6.02934491 0 9 C-0.99 9 -1.98 9 -3 9 C-3 6.69 -3 4.38 -3 2 C-3.99 2.495 -3.99 2.495 -5 3 C-5.65772428 6.02934491 -5.65772428 6.02934491 -6 9 C-6.99 8.67 -7.98 8.34 -9 8 C-9 5.36 -9 2.72 -9 0 C-5.54092349 -0.86476913 -3.40764342 -0.90870491 0 0 Z " fill="#CC3399" transform="translate(504,128)"/>
<path d="M0 0 C1.66561399 1.66561399 1.17115945 3.65962705 1.1875 5.9375 C1.20167969 6.83339844 1.21585938 7.72929687 1.23046875 8.65234375 C1 11 1 11 -1 13 C-4.625 13.125 -4.625 13.125 -8 13 C-8.33 9.37 -8.66 5.74 -9 2 C-5.2524627 0.12623135 -3.96403081 -0.3214079 0 0 Z M-5 3 C-5.33 4.32 -5.66 5.64 -6 7 C-4.68 7 -3.36 7 -2 7 C-2.33 5.68 -2.66 4.36 -3 3 C-3.66 3 -4.32 3 -5 3 Z " fill="#CC3399" transform="translate(543,127)"/>
<path d="M0 0 C0 2.97 0 5.94 0 9 C-0.66 9 -1.32 9 -2 9 C-2.33 6.69 -2.66 4.38 -3 2 C-3.66 2 -4.32 2 -5 2 C-5 3.98 -5 5.96 -5 8 C-5.99 8.33 -6.98 8.66 -8 9 C-8.12375 8.030625 -8.2475 7.06125 -8.375 6.0625 C-8.684375 4.5465625 -8.684375 4.5465625 -9 3 C-9.66 2.67 -10.32 2.34 -11 2 C-11 4.31 -11 6.62 -11 9 C-11.99 9 -12.98 9 -14 9 C-14 6.03 -14 3.06 -14 0 C-9.50927531 -1.12268117 -4.31160613 -2.15580306 0 0 Z " fill="#CC3399" transform="translate(590,128)"/>
<path d="M0 0 C1 1 1 1 1.1328125 2.8125 C1.13023437 3.534375 1.12765625 4.25625 1.125 5 C1.12757813 5.721875 1.13015625 6.44375 1.1328125 7.1875 C1 9 1 9 0 10 C-3.4375 10.1875 -3.4375 10.1875 -7 10 C-9 8 -9 8 -9.3125 5 C-9.209375 4.01 -9.10625 3.02 -9 2 C-5.55892734 -0.29404844 -4.03160191 -0.26293056 0 0 Z M-5 3 C-5.33 4.32 -5.66 5.64 -6 7 C-5.01 7 -4.02 7 -3 7 C-3 5.68 -3 4.36 -3 3 C-3.66 3 -4.32 3 -5 3 Z " fill="#CC3399" transform="translate(689,127)"/>
<path d="M0 0 C1 1 1 1 1.1328125 2.8125 C1.13023437 3.534375 1.12765625 4.25625 1.125 5 C1.12757813 5.721875 1.13015625 6.44375 1.1328125 7.1875 C1 9 1 9 0 10 C-3.4375 10.1875 -3.4375 10.1875 -7 10 C-9 8 -9 8 -9.3125 5 C-9.209375 4.01 -9.10625 3.02 -9 2 C-5.55892734 -0.29404844 -4.03160191 -0.26293056 0 0 Z M-5 3 C-5.33 4.32 -5.66 5.64 -6 7 C-5.01 7 -4.02 7 -3 7 C-3 5.68 -3 4.36 -3 3 C-3.66 3 -4.32 3 -5 3 Z " fill="#CC3399" transform="translate(433,127)"/>
<path d="M0 0 C2.625 0.625 2.625 0.625 5 2 C5.8125 4.125 5.8125 4.125 6 6 C4.68 6.33 3.36 6.66 2 7 C2.99 7 3.98 7 5 7 C5 7.99 5 8.98 5 10 C1.625 10.1875 1.625 10.1875 -2 10 C-4 7 -4 7 -3.8125 4.4375 C-3 2 -3 2 0 0 Z " fill="#CC3399" transform="translate(598,127)"/>
<path d="M0 0 C3.39914975 1.13304992 4.05254451 2.12518475 6 5 C6.66 3.35 7.32 1.7 8 0 C8.99 0 9.98 0 11 0 C10.33501617 4.38889325 8.81242323 7.9811485 7 12 C6.01 12 5.02 12 4 12 C3.32332002 10.75539217 2.65905281 9.50403104 2 8.25 C1.62875 7.55390625 1.2575 6.8578125 0.875 6.140625 C0 4 0 4 0 0 Z " fill="#CC3399" transform="translate(666,125)"/>
<path d="M0 0 C2.3125 1.4375 2.3125 1.4375 3.25 3.875 C3.3125 6.4375 3.3125 6.4375 1.3125 9.4375 C-1.76671132 9.69410094 -3.89886993 9.83181504 -6.6875 8.4375 C-6.6875 6.1275 -6.6875 3.8175 -6.6875 1.4375 C-4.10756343 -0.28245771 -3.0937542 -0.64752995 0 0 Z M-3.6875 2.4375 C-4.0175 3.4275 -4.3475 4.4175 -4.6875 5.4375 C-3.2025 6.4275 -3.2025 6.4275 -1.6875 7.4375 C-1.0275 6.1175 -0.3675 4.7975 0.3125 3.4375 C-1.0075 3.1075 -2.3275 2.7775 -3.6875 2.4375 Z " fill="#CC3399" transform="translate(651.6875,127.5625)"/>
<path d="M0 0 C3.1875 0.875 3.1875 0.875 6 2 C6 4.31 6 6.62 6 9 C3.21136993 10.39431504 1.07921132 10.25660094 -2 10 C-4 7 -4 7 -3.8125 4.4375 C-3 2 -3 2 0 0 Z M0 3 C0 4.32 0 5.64 0 7 C0.99 7 1.98 7 3 7 C3.33 6.34 3.66 5.68 4 5 C3.67 4.34 3.34 3.68 3 3 C2.01 3 1.02 3 0 3 Z " fill="#CC3399" transform="translate(475,127)"/>
<path d="M0 0 C0 1.32 0 2.64 0 4 C-0.99 4.33 -1.98 4.66 -3 5 C-2.01 5 -1.02 5 0 5 C-0.33 5.99 -0.66 6.98 -1 8 C-3.875 8.125 -3.875 8.125 -7 8 C-7.66 7.34 -8.32 6.68 -9 6 C-8.625 2.375 -8.625 2.375 -8 -1 C-4.37673261 -2.2077558 -3.35853631 -1.54311128 0 0 Z " fill="#CC3399" transform="translate(723,129)"/>
<path d="M0 0 C0 2.64 0 5.28 0 8 C-0.99 8 -1.98 8 -3 8 C-3 5.69 -3 3.38 -3 1 C-3.99 1.495 -3.99 1.495 -5 2 C-5.65772428 5.02934491 -5.65772428 5.02934491 -6 8 C-6.99 8 -7.98 8 -9 8 C-9 5.03 -9 2.06 -9 -1 C-5.22102349 -2.0497157 -3.35080929 -2.10976881 0 0 Z " fill="#CC3399" transform="translate(631,129)"/>
<path d="M0 0 C0 2.64 0 5.28 0 8 C-0.99 8 -1.98 8 -3 8 C-3 5.69 -3 3.38 -3 1 C-3.99 1 -4.98 1 -6 1 C-6 3.31 -6 5.62 -6 8 C-6.99 8 -7.98 8 -9 8 C-9 5.03 -9 2.06 -9 -1 C-4.70600835 -2.07349791 -3.80504787 -1.79682816 0 0 Z " fill="#CC3399" transform="translate(530,129)"/>
<path d="M0 0 C2.625 0.9375 2.625 0.9375 5 2 C5.04241723 4.33294775 5.04092937 6.66702567 5 9 C4 10 4 10 0.9375 10.0625 C-0.031875 10.041875 -1.00125 10.02125 -2 10 C-2.83241855 6.67032582 -3.2757381 4.24733335 -2 1 C-1.34 0.67 -0.68 0.34 0 0 Z " fill="#CC3399" transform="translate(453,127)"/>
<path d="M0 0 C0.99 0 1.98 0 3 0 C3.33 1.98 3.66 3.96 4 6 C4.33 6 4.66 6 5 6 C5.33 4.02 5.66 2.04 6 0 C6.99 0 7.98 0 9 0 C9.125 6.75 9.125 6.75 8 9 C5.69 9 3.38 9 1 9 C-0.4783226 6.04335481 -0.06032783 3.25770263 0 0 Z " fill="#CC3399" transform="translate(701,128)"/>
<path d="M0 0 C3.3 0 6.6 0 10 0 C10 0.99 10 1.98 10 3 C9.01 3 8.02 3 7 3 C7 5.97 7 8.94 7 12 C6.01 12 5.02 12 4 12 C4 9.03 4 6.06 4 3 C2.68 2.67 1.36 2.34 0 2 C0 1.34 0 0.68 0 0 Z " fill="#CC3399" transform="translate(555,125)"/>
<path d="M0 0 C3.3 0 6.6 0 10 0 C10 0.99 10 1.98 10 3 C9.01 3 8.02 3 7 3 C7 5.97 7 8.94 7 12 C6.01 12 5.02 12 4 12 C4 9.03 4 6.06 4 3 C2.68 2.67 1.36 2.34 0 2 C0 1.34 0 0.68 0 0 Z " fill="#CC3399" transform="translate(401,125)"/>
<path d="M0 0 C1.32 0.33 2.64 0.66 4 1 C4 2.65 4 4.3 4 6 C3.01 6 2.02 6 1 6 C1 8.31 1 10.62 1 13 C0.01 13 -0.98 13 -2 13 C-2 10.69 -2 8.38 -2 6 C-2.66 6 -3.32 6 -4 6 C-4 5.34 -4 4.68 -4 4 C-3.34 4 -2.68 4 -2 4 C-1.34 2.68 -0.68 1.36 0 0 Z " fill="#CC3399" transform="translate(465,124)"/>
<path d="M0 0 C0 2.97 0 5.94 0 9 C-0.66 9 -1.32 9 -2 9 C-2.12375 8.030625 -2.2475 7.06125 -2.375 6.0625 C-2.684375 4.5465625 -2.684375 4.5465625 -3 3 C-3.66 2.67 -4.32 2.34 -5 2 C-5 3.98 -5 5.96 -5 8 C-5.99 8.33 -6.98 8.66 -8 9 C-8 6.03 -8 3.06 -8 0 C-4 -1 -4 -1 0 0 Z " fill="#CC3399" transform="translate(446,128)"/>
<path d="M0 0 C0.99 0 1.98 0 3 0 C3 0.66 3 1.32 3 2 C3.66 2 4.32 2 5 2 C5 2.66 5 3.32 5 4 C4.34 4 3.68 4 3 4 C3 5.65 3 7.3 3 9 C3.66 9 4.32 9 5 9 C5 9.66 5 10.32 5 11 C3.35 10.67 1.7 10.34 0 10 C0 8.02 0 6.04 0 4 C-0.66 4 -1.32 4 -2 4 C-2 3.34 -2 2.68 -2 2 C-1.34 2 -0.68 2 0 2 C0 1.34 0 0.68 0 0 Z " fill="#CC3399" transform="translate(636,126)"/>
<path d="M0 0 C0.66 0 1.32 0 2 0 C2 4.29 2 8.58 2 13 C1.01 13 0.02 13 -1 13 C-1.02686553 11.02090602 -1.04633375 9.04171029 -1.0625 7.0625 C-1.07410156 5.96035156 -1.08570313 4.85820312 -1.09765625 3.72265625 C-1 1 -1 1 0 0 Z " fill="#CC3399" transform="translate(695,124)"/>
<path d="M0 0 C0 0.66 0 1.32 0 2 C-0.99 2.33 -1.98 2.66 -3 3 C-3.33 4.98 -3.66 6.96 -4 9 C-4.99 9 -5.98 9 -7 9 C-7 6.03 -7 3.06 -7 0 C-2.25 -1.125 -2.25 -1.125 0 0 Z " fill="#CC3399" transform="translate(492,128)"/>
<path d="M0 0 C0 0.66 0 1.32 0 2 C-0.99 2.33 -1.98 2.66 -3 3 C-3.33 4.98 -3.66 6.96 -4 9 C-4.99 9 -5.98 9 -7 9 C-7 6.03 -7 3.06 -7 0 C-2.25 -1.125 -2.25 -1.125 0 0 Z " fill="#CC3399" transform="translate(421,128)"/>
<path d="M0 0 C0.99 0 1.98 0 3 0 C3 2.97 3 5.94 3 9 C2.01 9 1.02 9 0 9 C0 6.03 0 3.06 0 0 Z " fill="#CC3399" transform="translate(615,128)"/>
<path d="M0 0 C0.99 0 1.98 0 3 0 C3 2.97 3 5.94 3 9 C2.01 9 1.02 9 0 9 C0 6.03 0 3.06 0 0 Z " fill="#CC3399" transform="translate(569,128)"/>
<path d="M0 0 C0.99 0 1.98 0 3 0 C3 2.97 3 5.94 3 9 C2.01 9 1.02 9 0 9 C0 6.03 0 3.06 0 0 Z " fill="#CC3399" transform="translate(514,128)"/>
<path d="M0 0 C0.99 0 1.98 0 3 0 C3 0.66 3 1.32 3 2 C2.01 2 1.02 2 0 2 C0 1.34 0 0.68 0 0 Z " fill="#CC3399" transform="translate(615,125)"/>
<path d="M0 0 C0.99 0 1.98 0 3 0 C3 0.66 3 1.32 3 2 C2.01 2 1.02 2 0 2 C0 1.34 0 0.68 0 0 Z " fill="#CC3399" transform="translate(569,125)"/>
<path d="M0 0 C0.99 0 1.98 0 3 0 C3 0.66 3 1.32 3 2 C2.01 2 1.02 2 0 2 C0 1.34 0 0.68 0 0 Z " fill="#CC3399" transform="translate(514,125)"/>
</svg>
